<svg width="80" height="70" viewBox="0 0 80 70" fill="none" xmlns="http://www.w3.org/2000/svg">
<path d="M65.482 65.5619L68.63 69.2279L10.27 69.2439L10.984 64.7339L17.395 61.1719L16.398 53.6219L24.903 52.8809L25.343 48.9509L35.223 48.1009L35.79 41.0389L37.486 38.7809L41.437 39.6309L41.892 43.3899L48.212 42.9919L48.61 50.1009L55.719 52.8719L56.118 58.4019C56.728 59.2509 59.83 57.8889 60.374 58.6809C60.923 59.4789 59.877 57.9049 60.374 58.6809C59.675 61.9589 64.521 62.5179 64.521 62.5179L65.482 65.5619ZM57.757 41.8409L54.779 40.8309C53.769 41.6119 53.386 42.4259 53.681 43.2739L55.167 44.9939L57.42 44.2429C58.232 43.9689 58.512 43.4619 58.264 42.7359C58.192 42.4819 58.026 42.1769 57.757 41.8409ZM55.862 33.9229C55.204 33.6069 54.526 33.5519 53.79 33.7959C53.397 33.9229 52.998 34.1839 52.548 34.5699L52.662 38.0959L56.085 37.6709C56.981 36.6489 57.322 35.8229 57.115 35.1859C56.929 34.6769 56.524 34.2519 55.862 33.9229ZM66.343 38.8209L66.364 38.8939C66.24 38.9349 65.618 38.7899 64.5 38.4379C63.961 38.2569 63.418 38.0549 62.874 37.8419C62.098 38.1009 61.621 38.8729 61.435 40.1469C61.248 41.4259 61.373 42.7089 61.797 43.9889C61.905 44.3419 62.18 44.7139 62.605 45.1489L63.331 45.8329L64.594 45.7659C66.013 45.1499 66.821 44.8079 67.038 44.7359C67.546 44.4299 67.897 43.7829 68.068 42.8199C68.245 41.8459 68.177 40.9239 67.872 40.0289C67.533 39.0029 67.036 38.5939 66.343 38.8209ZM60.833 49.3279L60.093 52.0049C60.647 52.4869 61.434 52.8229 62.489 52.9789L64.985 52.1399L63.721 48.3609L60.833 49.3279ZM73.54 44.4909L72.794 47.1739C73.343 47.6549 74.13 47.9869 75.197 48.1529L77.692 47.3189L76.423 43.5339L73.54 44.4909ZM75.378 64.6189L74.638 67.2959C75.187 67.7779 75.979 68.1089 77.031 68.2749L79.537 67.4419L78.273 63.6569L75.378 64.6189ZM74.674 52.7199C73.23 51.1099 71.438 50.6589 69.304 51.3739L68.984 51.4779C67.979 52.3689 67.14 53.6729 66.447 55.3609C65.763 56.9659 65.572 58.2349 65.877 59.1619C65.908 59.2339 66.571 59.8359 67.85 60.9849C69.223 62.1079 69.979 62.8589 70.145 63.2319L74.189 61.8799C74.655 61.7249 75.11 61.5069 75.541 61.2229C75.98 60.9429 76.338 60.6119 76.644 60.2589C76.939 59.9069 77.157 59.5449 77.296 59.1829C77.426 58.8259 77.446 58.4889 77.332 58.1619C76.45 55.5309 75.564 53.7249 74.674 52.7199ZM33.378 35.5359C32.7 39.5779 30.626 43.3059 30.626 43.3059C30.626 43.3059 26.365 43.6319 22.409 42.5559C18.458 41.4839 12.381 31.4639 12.381 31.4639L18.618 27.4659L11.115 15.0439L5.271 13.7649L2.667 9.69788L1.533 10.4259L0 8.03288L12.073 0.296875L13.605 2.68388L12.471 3.40887L15.086 7.48187L13.791 13.3869L21.273 25.7709L27.482 21.7809C27.482 21.7809 34.052 31.4949 33.378 35.5359ZM6.532 11.9579L11.772 13.1069L12.917 7.87488L10.763 4.50587L4.381 8.59888L6.532 11.9579Z" fill="#69391E"/>
</svg>
