<svg width="2425" height="963" viewBox="0 0 2425 963" fill="none" xmlns="http://www.w3.org/2000/svg">
<path fill-rule="evenodd" clip-rule="evenodd" d="M1553.54 499.347C1632.11 551.188 1763.68 531.636 1820.76 460.282C1877.85 388.929 1906.77 109.852 1906.77 109.852C1906.77 109.852 1609.19 189.032 1538.58 259.561C1467.97 330.091 1474.96 447.506 1553.54 499.347Z" fill="#529A9C"/>
<path d="M1798.81 227.32C1798.81 227.32 1636.98 317.521 1578.13 483.65C1519.29 649.779 1345 630.912 1345 630.912" stroke="#22BA8E" stroke-width="37.5" stroke-linecap="round"/>
<path d="M1712.05 436.924L1603.88 432.75L1551.53 348.984" stroke="#22BA8E" stroke-width="25" stroke-linecap="round"/>
<path d="M1745.27 349.282L1671.51 335.582L1647.82 280.961" stroke="#22BA8E" stroke-width="25" stroke-linecap="round"/>
<path fill-rule="evenodd" clip-rule="evenodd" d="M949.441 497.347C870.869 549.188 739.299 529.636 682.213 458.282C625.127 386.929 596.205 107.852 596.205 107.852C596.205 107.852 893.788 187.032 964.396 257.561C1035 328.091 1028.01 445.506 949.441 497.347Z" fill="#529A9C"/>
<path d="M704.17 225.32C704.17 225.32 865.995 315.521 924.843 481.65C983.691 647.779 1157.98 628.912 1157.98 628.912" stroke="#22BA8E" stroke-width="37.5" stroke-linecap="round"/>
<path d="M790.923 434.924L899.094 430.75L951.447 346.984" stroke="#22BA8E" stroke-width="25" stroke-linecap="round"/>
<path d="M757.708 347.282L831.465 333.582L855.155 278.961" stroke="#22BA8E" stroke-width="25" stroke-linecap="round"/>
<path d="M19 635.162C19 635.162 201.475 603.125 351.906 694.953C502.337 786.781 625.707 662.236 625.707 662.236" stroke="#22BA8E" stroke-width="37.5" stroke-linecap="round"/>
<path d="M1799 649.162C1799 649.162 1981.48 617.125 2131.91 708.953C2282.34 800.781 2405.71 676.236 2405.71 676.236" stroke="#22BA8E" stroke-width="37.5" stroke-linecap="round"/>
</svg>
