<svg width="48" height="48" viewBox="0 0 48 48" fill="none" xmlns="http://www.w3.org/2000/svg">
<g clip-path="url(#clip0_720_20)">
<path d="M48 0H0V48H48V0Z" fill="white" fill-opacity="0.01"/>
<path fill-rule="evenodd" clip-rule="evenodd" d="M22.2187 7.375L33.8868 16.6182L36.1778 23.9964L25.2625 26.0818L12.5889 14.5278L15.281 8.99806L22.2187 7.375Z" stroke="#585858" stroke-width="4" stroke-linejoin="round"/>
<path d="M15.2808 9L26.4862 18.6001" stroke="#585858" stroke-width="4" stroke-linecap="round"/>
<path d="M25.2627 26.0886L26.4866 18.1358L33.8869 16.625" stroke="#585858" stroke-width="4" stroke-linecap="round" stroke-linejoin="round"/>
<path d="M24.993 31.0209L27.2792 38.1013L15.601 40.3766L4 29.0121L6.57052 22.6234L12.0285 21.3516" stroke="#585858" stroke-width="4" stroke-linecap="round" stroke-linejoin="round"/>
<path d="M6.5708 22.625L17.2842 32.7577" stroke="#585858" stroke-width="4" stroke-linecap="round"/>
<path d="M15.6011 39.8682L17.4865 32.1358L24.9908 31.0469" stroke="#585858" stroke-width="4" stroke-linecap="round" stroke-linejoin="round"/>
<path fill-rule="evenodd" clip-rule="evenodd" d="M34.8868 29.6077L34 36.7999L43.236 34.9985L41.2813 28.1875L34.8868 29.6077Z" stroke="#585858" stroke-width="4" stroke-linejoin="round"/>
</g>
<defs>
<clipPath id="clip0_720_20">
<rect width="48" height="48" fill="white"/>
</clipPath>
</defs>
</svg>
