<svg width="512" height="512" viewBox="0 0 512 512" fill="none" xmlns="http://www.w3.org/2000/svg">
<path fill-rule="evenodd" clip-rule="evenodd" d="M256 0C397.385 0 512 114.615 512 256C512 397.385 397.385 512 256 512C114.615 512 0 397.385 0 256C0 114.615 114.615 0 256 0ZM406.3 374.436C409.958 370.759 412.011 365.784 412.011 360.597C412.011 355.41 409.958 350.435 406.3 346.758L356.189 296.658C352.511 292.998 347.533 290.944 342.344 290.944C337.155 290.944 332.177 292.998 328.499 296.658L314.882 310.281C310.36 314.841 304.487 317.818 298.136 318.77C291.785 319.721 285.296 318.595 279.637 315.56C244.2 296.791 215.218 267.811 196.444 232.377C193.408 226.716 192.281 220.227 193.231 213.874C194.18 207.522 197.156 201.645 201.714 197.12L215.357 183.5C219.015 179.822 221.068 174.845 221.068 169.658C221.068 164.47 219.015 159.493 215.357 155.815L165.246 105.72C161.568 102.06 156.59 100.005 151.4 100.005C146.211 100.005 141.233 102.06 137.555 105.72C135.484 107.785 132.864 110.28 130.062 112.92C123.055 119.543 114.313 127.786 110.779 132.968C92.166 160.207 101.092 196.649 111.815 222.427C125.98 256.404 152.086 293.427 185.351 326.669C218.586 359.907 255.597 386.016 289.593 400.181C315.365 410.919 351.793 419.823 379.031 401.214C384.21 397.677 392.465 388.956 399.075 381.94C401.726 379.143 404.223 376.5 406.3 374.436Z" fill="#367A44"/>
</svg>
